# Generated by scripts/generate_true_fixture_mesh_assets.py
v 0.01850000 0.00500000 0.05500000
v 0.01090871 0.00500000 0.05500000
v 0.00536033 0.01073624 0.05500000
v -0.00255885 0.01172400 0.05500000
v -0.00934629 0.00752641 0.05500000
v -0.01200000 0.00000000 0.05500000
v -0.00934629 -0.00752641 0.05500000
v -0.00255885 -0.01172400 0.05500000
v 0.00536033 -0.01073624 0.05500000
v 0.01090871 -0.00500000 0.05500000
v 0.01850000 -0.00500000 0.05500000
v 0.01850000 0.00500000 -0.05500000
v 0.01090871 0.00500000 -0.05500000
v 0.00536033 0.01073624 -0.05500000
v -0.00255885 0.01172400 -0.05500000
v -0.00934629 0.00752641 -0.05500000
v -0.01200000 0.00000000 -0.05500000
v -0.00934629 -0.00752641 -0.05500000
v -0.00255885 -0.01172400 -0.05500000
v 0.00536033 -0.01073624 -0.05500000
v 0.01090871 -0.00500000 -0.05500000
v 0.01850000 -0.00500000 -0.05500000
f 1 2 3
f 12 14 13
f 1 3 4
f 12 15 14
f 1 4 5
f 12 16 15
f 1 5 6
f 12 17 16
f 1 6 7
f 12 18 17
f 1 7 8
f 12 19 18
f 1 8 9
f 12 20 19
f 1 9 10
f 12 21 20
f 1 10 11
f 12 22 21
f 1 2 13
f 1 13 12
f 2 3 14
f 2 14 13
f 3 4 15
f 3 15 14
f 4 5 16
f 4 16 15
f 5 6 17
f 5 17 16
f 6 7 18
f 6 18 17
f 7 8 19
f 7 19 18
f 8 9 20
f 8 20 19
f 9 10 21
f 9 21 20
f 10 11 22
f 10 22 21
f 11 1 12
f 11 12 22
