# Generated by scripts/generate_true_fixture_mesh_assets.py
v -0.00600000 0.01039230 0.00025000
v -0.01200000 0.00000000 0.00025000
v -0.00600000 -0.01039230 0.00025000
v 0.00600000 -0.01039230 0.00025000
v 0.01200000 -0.00000000 0.00025000
v 0.00600000 0.01039230 0.00025000
v -0.00600000 0.01039230 -0.00025000
v -0.01200000 0.00000000 -0.00025000
v -0.00600000 -0.01039230 -0.00025000
v 0.00600000 -0.01039230 -0.00025000
v 0.01200000 -0.00000000 -0.00025000
v 0.00600000 0.01039230 -0.00025000
f 1 2 3
f 7 9 8
f 1 3 4
f 7 10 9
f 1 4 5
f 7 11 10
f 1 5 6
f 7 12 11
f 1 2 8
f 1 8 7
f 2 3 9
f 2 9 8
f 3 4 10
f 3 10 9
f 4 5 11
f 4 11 10
f 5 6 12
f 5 12 11
f 6 1 7
f 6 7 12
