# Generated by scripts/generate_true_fixture_mesh_assets.py
v 0.01440000 0.01200000 0.05500000
v -0.01440000 0.01200000 0.05500000
v -0.02040000 0.01039230 0.05500000
v -0.02479230 0.00600000 0.05500000
v -0.02640000 0.00000000 0.05500000
v -0.02479230 -0.00600000 0.05500000
v -0.02040000 -0.01039230 0.05500000
v -0.01440000 -0.01200000 0.05500000
v 0.01440000 -0.01200000 0.05500000
v 0.02040000 -0.01039230 0.05500000
v 0.02479230 -0.00600000 0.05500000
v 0.02640000 -0.00000000 0.05500000
v 0.02479230 0.00600000 0.05500000
v 0.02040000 0.01039230 0.05500000
v 0.01440000 0.01200000 -0.05500000
v -0.01440000 0.01200000 -0.05500000
v -0.02040000 0.01039230 -0.05500000
v -0.02479230 0.00600000 -0.05500000
v -0.02640000 0.00000000 -0.05500000
v -0.02479230 -0.00600000 -0.05500000
v -0.02040000 -0.01039230 -0.05500000
v -0.01440000 -0.01200000 -0.05500000
v 0.01440000 -0.01200000 -0.05500000
v 0.02040000 -0.01039230 -0.05500000
v 0.02479230 -0.00600000 -0.05500000
v 0.02640000 -0.00000000 -0.05500000
v 0.02479230 0.00600000 -0.05500000
v 0.02040000 0.01039230 -0.05500000
f 1 2 3
f 15 17 16
f 1 3 4
f 15 18 17
f 1 4 5
f 15 19 18
f 1 5 6
f 15 20 19
f 1 6 7
f 15 21 20
f 1 7 8
f 15 22 21
f 1 8 9
f 15 23 22
f 1 9 10
f 15 24 23
f 1 10 11
f 15 25 24
f 1 11 12
f 15 26 25
f 1 12 13
f 15 27 26
f 1 13 14
f 15 28 27
f 1 2 16
f 1 16 15
f 2 3 17
f 2 17 16
f 3 4 18
f 3 18 17
f 4 5 19
f 4 19 18
f 5 6 20
f 5 20 19
f 6 7 21
f 6 21 20
f 7 8 22
f 7 22 21
f 8 9 23
f 8 23 22
f 9 10 24
f 9 24 23
f 10 11 25
f 10 25 24
f 11 12 26
f 11 26 25
f 12 13 27
f 12 27 26
f 13 14 28
f 13 28 27
f 14 1 15
f 14 15 28
