# Generated by scripts/generate_true_fixture_mesh_assets.py
v -0.03247595 0.01875000 0.02600000
v -0.00000000 -0.03750000 0.02600000
v 0.03247595 0.01875000 0.02600000
v -0.01169134 0.00675000 0.02600000
v -0.00000000 -0.01350000 0.02600000
v 0.01169134 0.00675000 0.02600000
v -0.03247595 0.01875000 -0.02600000
v -0.00000000 -0.03750000 -0.02600000
v 0.03247595 0.01875000 -0.02600000
v -0.01169134 0.00675000 -0.02600000
v -0.00000000 -0.01350000 -0.02600000
v 0.01169134 0.00675000 -0.02600000
f 1 2 5
f 1 5 4
f 7 11 8
f 7 10 11
f 1 8 2
f 1 7 8
f 4 5 11
f 4 11 10
f 2 3 6
f 2 6 5
f 8 12 9
f 8 11 12
f 2 9 3
f 2 8 9
f 5 6 12
f 5 12 11
f 3 1 4
f 3 4 6
f 9 10 7
f 9 12 10
f 3 7 1
f 3 9 7
f 6 4 10
f 6 10 12
