# Generated by scripts/generate_true_fixture_mesh_assets.py
v 0.03250000 0.01800000 0.02600000
v 0.01734935 0.01800000 0.02600000
v 0.00453836 0.02458462 0.02600000
v -0.00977922 0.02300797 0.02600000
v -0.02085043 0.01379347 0.02600000
v -0.02500000 0.00000000 0.02600000
v -0.02085043 -0.01379347 0.02600000
v -0.00977922 -0.02300797 0.02600000
v 0.00453836 -0.02458462 0.02600000
v 0.01734935 -0.01800000 0.02600000
v 0.03250000 -0.01800000 0.02600000
v 0.02050000 0.00600000 0.02600000
v 0.01153256 0.00600000 0.02600000
v 0.00536730 0.01184028 0.02600000
v -0.00308842 0.01262781 0.02600000
v -0.01022618 0.00802654 0.02600000
v -0.01300000 0.00000000 0.02600000
v -0.01022618 -0.00802654 0.02600000
v -0.00308842 -0.01262781 0.02600000
v 0.00536730 -0.01184028 0.02600000
v 0.01153256 -0.00600000 0.02600000
v 0.02050000 -0.00600000 0.02600000
v 0.03250000 0.01800000 -0.02600000
v 0.01734935 0.01800000 -0.02600000
v 0.00453836 0.02458462 -0.02600000
v -0.00977922 0.02300797 -0.02600000
v -0.02085043 0.01379347 -0.02600000
v -0.02500000 0.00000000 -0.02600000
v -0.02085043 -0.01379347 -0.02600000
v -0.00977922 -0.02300797 -0.02600000
v 0.00453836 -0.02458462 -0.02600000
v 0.01734935 -0.01800000 -0.02600000
v 0.03250000 -0.01800000 -0.02600000
v 0.02050000 0.00600000 -0.02600000
v 0.01153256 0.00600000 -0.02600000
v 0.00536730 0.01184028 -0.02600000
v -0.00308842 0.01262781 -0.02600000
v -0.01022618 0.00802654 -0.02600000
v -0.01300000 0.00000000 -0.02600000
v -0.01022618 -0.00802654 -0.02600000
v -0.00308842 -0.01262781 -0.02600000
v 0.00536730 -0.01184028 -0.02600000
v 0.01153256 -0.00600000 -0.02600000
v 0.02050000 -0.00600000 -0.02600000
f 1 2 13
f 1 13 12
f 23 35 24
f 23 34 35
f 1 24 2
f 1 23 24
f 12 13 35
f 12 35 34
f 2 3 14
f 2 14 13
f 24 36 25
f 24 35 36
f 2 25 3
f 2 24 25
f 13 14 36
f 13 36 35
f 3 4 15
f 3 15 14
f 25 37 26
f 25 36 37
f 3 26 4
f 3 25 26
f 14 15 37
f 14 37 36
f 4 5 16
f 4 16 15
f 26 38 27
f 26 37 38
f 4 27 5
f 4 26 27
f 15 16 38
f 15 38 37
f 5 6 17
f 5 17 16
f 27 39 28
f 27 38 39
f 5 28 6
f 5 27 28
f 16 17 39
f 16 39 38
f 6 7 18
f 6 18 17
f 28 40 29
f 28 39 40
f 6 29 7
f 6 28 29
f 17 18 40
f 17 40 39
f 7 8 19
f 7 19 18
f 29 41 30
f 29 40 41
f 7 30 8
f 7 29 30
f 18 19 41
f 18 41 40
f 8 9 20
f 8 20 19
f 30 42 31
f 30 41 42
f 8 31 9
f 8 30 31
f 19 20 42
f 19 42 41
f 9 10 21
f 9 21 20
f 31 43 32
f 31 42 43
f 9 32 10
f 9 31 32
f 20 21 43
f 20 43 42
f 10 11 22
f 10 22 21
f 32 44 33
f 32 43 44
f 10 33 11
f 10 32 33
f 21 22 44
f 21 44 43
f 11 1 12
f 11 12 22
f 33 34 23
f 33 44 34
f 11 23 1
f 11 33 23
f 22 12 34
f 22 34 44
