# Generated by scripts/generate_true_fixture_mesh_assets.py
v -0.01616581 0.02800000 0.02600000
v -0.03233162 0.00000000 0.02600000
v -0.01616581 -0.02800000 0.02600000
v 0.01616581 -0.02800000 0.02600000
v 0.03233162 -0.00000000 0.02600000
v 0.01616581 0.02800000 0.02600000
v -0.00923760 0.01600000 0.02600000
v -0.01847521 0.00000000 0.02600000
v -0.00923760 -0.01600000 0.02600000
v 0.00923760 -0.01600000 0.02600000
v 0.01847521 -0.00000000 0.02600000
v 0.00923760 0.01600000 0.02600000
v -0.01616581 0.02800000 -0.02600000
v -0.03233162 0.00000000 -0.02600000
v -0.01616581 -0.02800000 -0.02600000
v 0.01616581 -0.02800000 -0.02600000
v 0.03233162 -0.00000000 -0.02600000
v 0.01616581 0.02800000 -0.02600000
v -0.00923760 0.01600000 -0.02600000
v -0.01847521 0.00000000 -0.02600000
v -0.00923760 -0.01600000 -0.02600000
v 0.00923760 -0.01600000 -0.02600000
v 0.01847521 -0.00000000 -0.02600000
v 0.00923760 0.01600000 -0.02600000
f 1 2 8
f 1 8 7
f 13 20 14
f 13 19 20
f 1 14 2
f 1 13 14
f 7 8 20
f 7 20 19
f 2 3 9
f 2 9 8
f 14 21 15
f 14 20 21
f 2 15 3
f 2 14 15
f 8 9 21
f 8 21 20
f 3 4 10
f 3 10 9
f 15 22 16
f 15 21 22
f 3 16 4
f 3 15 16
f 9 10 22
f 9 22 21
f 4 5 11
f 4 11 10
f 16 23 17
f 16 22 23
f 4 17 5
f 4 16 17
f 10 11 23
f 10 23 22
f 5 6 12
f 5 12 11
f 17 24 18
f 17 23 24
f 5 18 6
f 5 17 18
f 11 12 24
f 11 24 23
f 6 1 7
f 6 7 12
f 18 19 13
f 18 24 19
f 6 13 1
f 6 18 13
f 12 7 19
f 12 19 24
