# Generated by scripts/generate_true_fixture_mesh_assets.py
v 0.01920000 0.02800000 0.02600000
v -0.01920000 0.02800000 0.02600000
v -0.02991514 0.02586863 0.02600000
v -0.03899899 0.01979899 0.02600000
v -0.04506863 0.01071514 0.02600000
v -0.04720000 0.00000000 0.02600000
v -0.04506863 -0.01071514 0.02600000
v -0.03899899 -0.01979899 0.02600000
v -0.02991514 -0.02586863 0.02600000
v -0.01920000 -0.02800000 0.02600000
v 0.01920000 -0.02800000 0.02600000
v 0.02991514 -0.02586863 0.02600000
v 0.03899899 -0.01979899 0.02600000
v 0.04506863 -0.01071514 0.02600000
v 0.04720000 -0.00000000 0.02600000
v 0.04506863 0.01071514 0.02600000
v 0.03899899 0.01979899 0.02600000
v 0.02991514 0.02586863 0.02600000
v 0.01920000 0.01600000 0.02600000
v -0.01920000 0.01600000 0.02600000
v -0.02532293 0.01478207 0.02600000
v -0.03051371 0.01131371 0.02600000
v -0.03398207 0.00612293 0.02600000
v -0.03520000 0.00000000 0.02600000
v -0.03398207 -0.00612293 0.02600000
v -0.03051371 -0.01131371 0.02600000
v -0.02532293 -0.01478207 0.02600000
v -0.01920000 -0.01600000 0.02600000
v 0.01920000 -0.01600000 0.02600000
v 0.02532293 -0.01478207 0.02600000
v 0.03051371 -0.01131371 0.02600000
v 0.03398207 -0.00612293 0.02600000
v 0.03520000 -0.00000000 0.02600000
v 0.03398207 0.00612293 0.02600000
v 0.03051371 0.01131371 0.02600000
v 0.02532293 0.01478207 0.02600000
v 0.01920000 0.02800000 -0.02600000
v -0.01920000 0.02800000 -0.02600000
v -0.02991514 0.02586863 -0.02600000
v -0.03899899 0.01979899 -0.02600000
v -0.04506863 0.01071514 -0.02600000
v -0.04720000 0.00000000 -0.02600000
v -0.04506863 -0.01071514 -0.02600000
v -0.03899899 -0.01979899 -0.02600000
v -0.02991514 -0.02586863 -0.02600000
v -0.01920000 -0.02800000 -0.02600000
v 0.01920000 -0.02800000 -0.02600000
v 0.02991514 -0.02586863 -0.02600000
v 0.03899899 -0.01979899 -0.02600000
v 0.04506863 -0.01071514 -0.02600000
v 0.04720000 -0.00000000 -0.02600000
v 0.04506863 0.01071514 -0.02600000
v 0.03899899 0.01979899 -0.02600000
v 0.02991514 0.02586863 -0.02600000
v 0.01920000 0.01600000 -0.02600000
v -0.01920000 0.01600000 -0.02600000
v -0.02532293 0.01478207 -0.02600000
v -0.03051371 0.01131371 -0.02600000
v -0.03398207 0.00612293 -0.02600000
v -0.03520000 0.00000000 -0.02600000
v -0.03398207 -0.00612293 -0.02600000
v -0.03051371 -0.01131371 -0.02600000
v -0.02532293 -0.01478207 -0.02600000
v -0.01920000 -0.01600000 -0.02600000
v 0.01920000 -0.01600000 -0.02600000
v 0.02532293 -0.01478207 -0.02600000
v 0.03051371 -0.01131371 -0.02600000
v 0.03398207 -0.00612293 -0.02600000
v 0.03520000 -0.00000000 -0.02600000
v 0.03398207 0.00612293 -0.02600000
v 0.03051371 0.01131371 -0.02600000
v 0.02532293 0.01478207 -0.02600000
f 1 2 20
f 1 20 19
f 37 56 38
f 37 55 56
f 1 38 2
f 1 37 38
f 19 20 56
f 19 56 55
f 2 3 21
f 2 21 20
f 38 57 39
f 38 56 57
f 2 39 3
f 2 38 39
f 20 21 57
f 20 57 56
f 3 4 22
f 3 22 21
f 39 58 40
f 39 57 58
f 3 40 4
f 3 39 40
f 21 22 58
f 21 58 57
f 4 5 23
f 4 23 22
f 40 59 41
f 40 58 59
f 4 41 5
f 4 40 41
f 22 23 59
f 22 59 58
f 5 6 24
f 5 24 23
f 41 60 42
f 41 59 60
f 5 42 6
f 5 41 42
f 23 24 60
f 23 60 59
f 6 7 25
f 6 25 24
f 42 61 43
f 42 60 61
f 6 43 7
f 6 42 43
f 24 25 61
f 24 61 60
f 7 8 26
f 7 26 25
f 43 62 44
f 43 61 62
f 7 44 8
f 7 43 44
f 25 26 62
f 25 62 61
f 8 9 27
f 8 27 26
f 44 63 45
f 44 62 63
f 8 45 9
f 8 44 45
f 26 27 63
f 26 63 62
f 9 10 28
f 9 28 27
f 45 64 46
f 45 63 64
f 9 46 10
f 9 45 46
f 27 28 64
f 27 64 63
f 10 11 29
f 10 29 28
f 46 65 47
f 46 64 65
f 10 47 11
f 10 46 47
f 28 29 65
f 28 65 64
f 11 12 30
f 11 30 29
f 47 66 48
f 47 65 66
f 11 48 12
f 11 47 48
f 29 30 66
f 29 66 65
f 12 13 31
f 12 31 30
f 48 67 49
f 48 66 67
f 12 49 13
f 12 48 49
f 30 31 67
f 30 67 66
f 13 14 32
f 13 32 31
f 49 68 50
f 49 67 68
f 13 50 14
f 13 49 50
f 31 32 68
f 31 68 67
f 14 15 33
f 14 33 32
f 50 69 51
f 50 68 69
f 14 51 15
f 14 50 51
f 32 33 69
f 32 69 68
f 15 16 34
f 15 34 33
f 51 70 52
f 51 69 70
f 15 52 16
f 15 51 52
f 33 34 70
f 33 70 69
f 16 17 35
f 16 35 34
f 52 71 53
f 52 70 71
f 16 53 17
f 16 52 53
f 34 35 71
f 34 71 70
f 17 18 36
f 17 36 35
f 53 72 54
f 53 71 72
f 17 54 18
f 17 53 54
f 35 36 72
f 35 72 71
f 18 1 19
f 18 19 36
f 54 55 37
f 54 72 55
f 18 37 1
f 18 54 37
f 36 19 55
f 36 55 72
